G04 #@! TF.FileFunction,Legend,Top*
%FSLAX46Y46*%
G04 Gerber Fmt 4.6, Leading zero omitted, Abs format (unit mm)*
G04 Created by KiCad (PCBNEW 4.0.7) date 09/11/18 19:27:17*
%MOMM*%
%LPD*%
G01*
G04 APERTURE LIST*
%ADD10C,0.100000*%
%ADD11C,0.120000*%
%ADD12C,0.150000*%
G04 APERTURE END LIST*
D10*
D11*
X137120000Y-130720000D02*
X137120000Y-125900000D01*
X139740000Y-130720000D02*
X139740000Y-125900000D01*
X137120000Y-130720000D02*
X137434000Y-130720000D01*
X139426000Y-130720000D02*
X139740000Y-130720000D01*
X137120000Y-125900000D02*
X137434000Y-125900000D01*
X139426000Y-125900000D02*
X139740000Y-125900000D01*
X137120000Y-109130000D02*
X137120000Y-104310000D01*
X139740000Y-109130000D02*
X139740000Y-104310000D01*
X137120000Y-109130000D02*
X137434000Y-109130000D01*
X139426000Y-109130000D02*
X139740000Y-109130000D01*
X137120000Y-104310000D02*
X137434000Y-104310000D01*
X139426000Y-104310000D02*
X139740000Y-104310000D01*
X137120000Y-119925000D02*
X137120000Y-115105000D01*
X139740000Y-119925000D02*
X139740000Y-115105000D01*
X137120000Y-119925000D02*
X137434000Y-119925000D01*
X139426000Y-119925000D02*
X139740000Y-119925000D01*
X137120000Y-115105000D02*
X137434000Y-115105000D01*
X139426000Y-115105000D02*
X139740000Y-115105000D01*
X143514296Y-111404691D02*
G75*
G02X141205000Y-111445000I-1154296J-40309D01*
G01*
X141205948Y-111465121D02*
G75*
G02X142600000Y-110316000I1154052J20121D01*
G01*
X145980000Y-103125000D02*
X145980000Y-112775000D01*
X141029000Y-103125000D02*
X141029000Y-112775000D01*
X145980000Y-103125000D02*
X141029000Y-103125000D01*
X145980000Y-112775000D02*
X141029000Y-112775000D01*
X143094000Y-112321000D02*
X141484000Y-110710000D01*
X143235000Y-112181000D02*
X141625000Y-110569000D01*
X143514296Y-122199691D02*
G75*
G02X141205000Y-122240000I-1154296J-40309D01*
G01*
X141205948Y-122260121D02*
G75*
G02X142600000Y-121111000I1154052J20121D01*
G01*
X145980000Y-113920000D02*
X145980000Y-123570000D01*
X141029000Y-113920000D02*
X141029000Y-123570000D01*
X145980000Y-113920000D02*
X141029000Y-113920000D01*
X145980000Y-123570000D02*
X141029000Y-123570000D01*
X143094000Y-123116000D02*
X141484000Y-121505000D01*
X143235000Y-122976000D02*
X141625000Y-121364000D01*
X143514296Y-132994691D02*
G75*
G02X141205000Y-133035000I-1154296J-40309D01*
G01*
X141205948Y-133055121D02*
G75*
G02X142600000Y-131906000I1154052J20121D01*
G01*
X145980000Y-124715000D02*
X145980000Y-134365000D01*
X141029000Y-124715000D02*
X141029000Y-134365000D01*
X145980000Y-124715000D02*
X141029000Y-124715000D01*
X145980000Y-134365000D02*
X141029000Y-134365000D01*
X143094000Y-133911000D02*
X141484000Y-132300000D01*
X143235000Y-133771000D02*
X141625000Y-132159000D01*
X143240000Y-136465000D02*
G75*
G02X141240000Y-136465000I-1000000J0D01*
G01*
X141240000Y-136465000D02*
X139590000Y-136465000D01*
X139590000Y-136465000D02*
X139590000Y-154365000D01*
X139590000Y-154365000D02*
X144890000Y-154365000D01*
X144890000Y-154365000D02*
X144890000Y-136465000D01*
X144890000Y-136465000D02*
X143240000Y-136465000D01*
X137100000Y-136405000D02*
X137100000Y-154425000D01*
X137100000Y-154425000D02*
X147380000Y-154425000D01*
X147380000Y-154425000D02*
X147380000Y-136405000D01*
X147380000Y-136405000D02*
X137100000Y-136405000D01*
X128635000Y-103445000D02*
G75*
G02X126635000Y-103445000I-1000000J0D01*
G01*
X126635000Y-103445000D02*
X121175000Y-103445000D01*
X121175000Y-103445000D02*
X121175000Y-154365000D01*
X121175000Y-154365000D02*
X134095000Y-154365000D01*
X134095000Y-154365000D02*
X134095000Y-103445000D01*
X134095000Y-103445000D02*
X128635000Y-103445000D01*
X124825000Y-103445000D02*
G75*
G02X122825000Y-103445000I-1000000J0D01*
G01*
X122825000Y-103445000D02*
X117365000Y-103445000D01*
X117365000Y-103445000D02*
X117365000Y-154365000D01*
X117365000Y-154365000D02*
X130285000Y-154365000D01*
X130285000Y-154365000D02*
X130285000Y-103445000D01*
X130285000Y-103445000D02*
X124825000Y-103445000D01*
X114875000Y-103385000D02*
X114875000Y-154425000D01*
X114875000Y-154425000D02*
X132775000Y-154425000D01*
X132775000Y-154425000D02*
X132775000Y-103385000D01*
X132775000Y-103385000D02*
X114875000Y-103385000D01*
D12*
X138263334Y-127865143D02*
X138215715Y-127912762D01*
X138072858Y-127960381D01*
X137977620Y-127960381D01*
X137834762Y-127912762D01*
X137739524Y-127817524D01*
X137691905Y-127722286D01*
X137644286Y-127531810D01*
X137644286Y-127388952D01*
X137691905Y-127198476D01*
X137739524Y-127103238D01*
X137834762Y-127008000D01*
X137977620Y-126960381D01*
X138072858Y-126960381D01*
X138215715Y-127008000D01*
X138263334Y-127055619D01*
X138596667Y-126960381D02*
X139215715Y-126960381D01*
X138882381Y-127341333D01*
X139025239Y-127341333D01*
X139120477Y-127388952D01*
X139168096Y-127436571D01*
X139215715Y-127531810D01*
X139215715Y-127769905D01*
X139168096Y-127865143D01*
X139120477Y-127912762D01*
X139025239Y-127960381D01*
X138739524Y-127960381D01*
X138644286Y-127912762D01*
X138596667Y-127865143D01*
X137763334Y-129484381D02*
X137191905Y-129484381D01*
X137477619Y-129484381D02*
X137477619Y-128484381D01*
X137382381Y-128627238D01*
X137287143Y-128722476D01*
X137191905Y-128770095D01*
X138382381Y-128484381D02*
X138477620Y-128484381D01*
X138572858Y-128532000D01*
X138620477Y-128579619D01*
X138668096Y-128674857D01*
X138715715Y-128865333D01*
X138715715Y-129103429D01*
X138668096Y-129293905D01*
X138620477Y-129389143D01*
X138572858Y-129436762D01*
X138477620Y-129484381D01*
X138382381Y-129484381D01*
X138287143Y-129436762D01*
X138239524Y-129389143D01*
X138191905Y-129293905D01*
X138144286Y-129103429D01*
X138144286Y-128865333D01*
X138191905Y-128674857D01*
X138239524Y-128579619D01*
X138287143Y-128532000D01*
X138382381Y-128484381D01*
X139572858Y-128817714D02*
X139572858Y-129484381D01*
X139334762Y-128436762D02*
X139096667Y-129151048D01*
X139715715Y-129151048D01*
X138263334Y-106275143D02*
X138215715Y-106322762D01*
X138072858Y-106370381D01*
X137977620Y-106370381D01*
X137834762Y-106322762D01*
X137739524Y-106227524D01*
X137691905Y-106132286D01*
X137644286Y-105941810D01*
X137644286Y-105798952D01*
X137691905Y-105608476D01*
X137739524Y-105513238D01*
X137834762Y-105418000D01*
X137977620Y-105370381D01*
X138072858Y-105370381D01*
X138215715Y-105418000D01*
X138263334Y-105465619D01*
X139215715Y-106370381D02*
X138644286Y-106370381D01*
X138930000Y-106370381D02*
X138930000Y-105370381D01*
X138834762Y-105513238D01*
X138739524Y-105608476D01*
X138644286Y-105656095D01*
X138144286Y-107227714D02*
X138144286Y-107894381D01*
X137906190Y-106846762D02*
X137668095Y-107561048D01*
X138287143Y-107561048D01*
X138572857Y-106894381D02*
X139239524Y-106894381D01*
X138810952Y-107894381D01*
X138263334Y-117070143D02*
X138215715Y-117117762D01*
X138072858Y-117165381D01*
X137977620Y-117165381D01*
X137834762Y-117117762D01*
X137739524Y-117022524D01*
X137691905Y-116927286D01*
X137644286Y-116736810D01*
X137644286Y-116593952D01*
X137691905Y-116403476D01*
X137739524Y-116308238D01*
X137834762Y-116213000D01*
X137977620Y-116165381D01*
X138072858Y-116165381D01*
X138215715Y-116213000D01*
X138263334Y-116260619D01*
X138644286Y-116260619D02*
X138691905Y-116213000D01*
X138787143Y-116165381D01*
X139025239Y-116165381D01*
X139120477Y-116213000D01*
X139168096Y-116260619D01*
X139215715Y-116355857D01*
X139215715Y-116451095D01*
X139168096Y-116593952D01*
X138596667Y-117165381D01*
X139215715Y-117165381D01*
X138144286Y-118022714D02*
X138144286Y-118689381D01*
X137906190Y-117641762D02*
X137668095Y-118356048D01*
X138287143Y-118356048D01*
X138572857Y-117689381D02*
X139239524Y-117689381D01*
X138810952Y-118689381D01*
X148629762Y-110942381D02*
X148296428Y-110466190D01*
X148058333Y-110942381D02*
X148058333Y-109942381D01*
X148439286Y-109942381D01*
X148534524Y-109990000D01*
X148582143Y-110037619D01*
X148629762Y-110132857D01*
X148629762Y-110275714D01*
X148582143Y-110370952D01*
X148534524Y-110418571D01*
X148439286Y-110466190D01*
X148058333Y-110466190D01*
X148915476Y-109942381D02*
X149248809Y-110942381D01*
X149582143Y-109942381D01*
X150439286Y-110942381D02*
X149867857Y-110942381D01*
X150153571Y-110942381D02*
X150153571Y-109942381D01*
X150058333Y-110085238D01*
X149963095Y-110180476D01*
X149867857Y-110228095D01*
X137239524Y-111926667D02*
X137715715Y-111926667D01*
X137144286Y-112212381D02*
X137477619Y-111212381D01*
X137810953Y-112212381D01*
X138144286Y-111688571D02*
X138477620Y-111688571D01*
X138620477Y-112212381D02*
X138144286Y-112212381D01*
X138144286Y-111212381D01*
X138620477Y-111212381D01*
X139620477Y-112117143D02*
X139572858Y-112164762D01*
X139430001Y-112212381D01*
X139334763Y-112212381D01*
X139191905Y-112164762D01*
X139096667Y-112069524D01*
X139049048Y-111974286D01*
X139001429Y-111783810D01*
X139001429Y-111640952D01*
X139049048Y-111450476D01*
X139096667Y-111355238D01*
X139191905Y-111260000D01*
X139334763Y-111212381D01*
X139430001Y-111212381D01*
X139572858Y-111260000D01*
X139620477Y-111307619D01*
X148629762Y-121737381D02*
X148296428Y-121261190D01*
X148058333Y-121737381D02*
X148058333Y-120737381D01*
X148439286Y-120737381D01*
X148534524Y-120785000D01*
X148582143Y-120832619D01*
X148629762Y-120927857D01*
X148629762Y-121070714D01*
X148582143Y-121165952D01*
X148534524Y-121213571D01*
X148439286Y-121261190D01*
X148058333Y-121261190D01*
X148915476Y-120737381D02*
X149248809Y-121737381D01*
X149582143Y-120737381D01*
X149867857Y-120832619D02*
X149915476Y-120785000D01*
X150010714Y-120737381D01*
X150248810Y-120737381D01*
X150344048Y-120785000D01*
X150391667Y-120832619D01*
X150439286Y-120927857D01*
X150439286Y-121023095D01*
X150391667Y-121165952D01*
X149820238Y-121737381D01*
X150439286Y-121737381D01*
X136930000Y-123007381D02*
X136930000Y-122007381D01*
X137310953Y-122007381D01*
X137406191Y-122055000D01*
X137453810Y-122102619D01*
X137501429Y-122197857D01*
X137501429Y-122340714D01*
X137453810Y-122435952D01*
X137406191Y-122483571D01*
X137310953Y-122531190D01*
X136930000Y-122531190D01*
X137930000Y-123007381D02*
X137930000Y-122007381D01*
X137930000Y-122483571D02*
X138501429Y-122483571D01*
X138501429Y-123007381D02*
X138501429Y-122007381D01*
X138977619Y-123007381D02*
X138977619Y-122007381D01*
X139644285Y-122007381D02*
X139739524Y-122007381D01*
X139834762Y-122055000D01*
X139882381Y-122102619D01*
X139930000Y-122197857D01*
X139977619Y-122388333D01*
X139977619Y-122626429D01*
X139930000Y-122816905D01*
X139882381Y-122912143D01*
X139834762Y-122959762D01*
X139739524Y-123007381D01*
X139644285Y-123007381D01*
X139549047Y-122959762D01*
X139501428Y-122912143D01*
X139453809Y-122816905D01*
X139406190Y-122626429D01*
X139406190Y-122388333D01*
X139453809Y-122197857D01*
X139501428Y-122102619D01*
X139549047Y-122055000D01*
X139644285Y-122007381D01*
X148629762Y-133802381D02*
X148296428Y-133326190D01*
X148058333Y-133802381D02*
X148058333Y-132802381D01*
X148439286Y-132802381D01*
X148534524Y-132850000D01*
X148582143Y-132897619D01*
X148629762Y-132992857D01*
X148629762Y-133135714D01*
X148582143Y-133230952D01*
X148534524Y-133278571D01*
X148439286Y-133326190D01*
X148058333Y-133326190D01*
X148915476Y-132802381D02*
X149248809Y-133802381D01*
X149582143Y-132802381D01*
X149820238Y-132802381D02*
X150439286Y-132802381D01*
X150105952Y-133183333D01*
X150248810Y-133183333D01*
X150344048Y-133230952D01*
X150391667Y-133278571D01*
X150439286Y-133373810D01*
X150439286Y-133611905D01*
X150391667Y-133707143D01*
X150344048Y-133754762D01*
X150248810Y-133802381D01*
X149963095Y-133802381D01*
X149867857Y-133754762D01*
X149820238Y-133707143D01*
X137715715Y-133707143D02*
X137668096Y-133754762D01*
X137525239Y-133802381D01*
X137430001Y-133802381D01*
X137287143Y-133754762D01*
X137191905Y-133659524D01*
X137144286Y-133564286D01*
X137096667Y-133373810D01*
X137096667Y-133230952D01*
X137144286Y-133040476D01*
X137191905Y-132945238D01*
X137287143Y-132850000D01*
X137430001Y-132802381D01*
X137525239Y-132802381D01*
X137668096Y-132850000D01*
X137715715Y-132897619D01*
X138144286Y-133802381D02*
X138144286Y-132802381D01*
X138144286Y-133278571D02*
X138715715Y-133278571D01*
X138715715Y-133802381D02*
X138715715Y-132802381D01*
X139763334Y-133802381D02*
X139430000Y-133326190D01*
X139191905Y-133802381D02*
X139191905Y-132802381D01*
X139572858Y-132802381D01*
X139668096Y-132850000D01*
X139715715Y-132897619D01*
X139763334Y-132992857D01*
X139763334Y-133135714D01*
X139715715Y-133230952D01*
X139668096Y-133278571D01*
X139572858Y-133326190D01*
X139191905Y-133326190D01*
X141478095Y-139787381D02*
X141478095Y-140596905D01*
X141525714Y-140692143D01*
X141573333Y-140739762D01*
X141668571Y-140787381D01*
X141859048Y-140787381D01*
X141954286Y-140739762D01*
X142001905Y-140692143D01*
X142049524Y-140596905D01*
X142049524Y-139787381D01*
X143049524Y-140787381D02*
X142478095Y-140787381D01*
X142763809Y-140787381D02*
X142763809Y-139787381D01*
X142668571Y-139930238D01*
X142573333Y-140025476D01*
X142478095Y-140073095D01*
X141692381Y-148057857D02*
X141692381Y-147391190D01*
X142692381Y-147819762D01*
X142025714Y-146581666D02*
X142692381Y-146581666D01*
X141644762Y-146819762D02*
X142359048Y-147057857D01*
X142359048Y-146438809D01*
X142692381Y-145581666D02*
X142692381Y-146057857D01*
X141692381Y-146057857D01*
X142644762Y-145295952D02*
X142692381Y-145153095D01*
X142692381Y-144914999D01*
X142644762Y-144819761D01*
X142597143Y-144772142D01*
X142501905Y-144724523D01*
X142406667Y-144724523D01*
X142311429Y-144772142D01*
X142263810Y-144819761D01*
X142216190Y-144914999D01*
X142168571Y-145105476D01*
X142120952Y-145200714D01*
X142073333Y-145248333D01*
X141978095Y-145295952D01*
X141882857Y-145295952D01*
X141787619Y-145248333D01*
X141740000Y-145200714D01*
X141692381Y-145105476D01*
X141692381Y-144867380D01*
X141740000Y-144724523D01*
X142692381Y-143772142D02*
X142692381Y-144343571D01*
X142692381Y-144057857D02*
X141692381Y-144057857D01*
X141835238Y-144153095D01*
X141930476Y-144248333D01*
X141978095Y-144343571D01*
X142025714Y-142914999D02*
X142692381Y-142914999D01*
X141644762Y-143153095D02*
X142359048Y-143391190D01*
X142359048Y-142772142D01*
X126873095Y-106767381D02*
X126873095Y-107576905D01*
X126920714Y-107672143D01*
X126968333Y-107719762D01*
X127063571Y-107767381D01*
X127254048Y-107767381D01*
X127349286Y-107719762D01*
X127396905Y-107672143D01*
X127444524Y-107576905D01*
X127444524Y-106767381D01*
X127873095Y-106862619D02*
X127920714Y-106815000D01*
X128015952Y-106767381D01*
X128254048Y-106767381D01*
X128349286Y-106815000D01*
X128396905Y-106862619D01*
X128444524Y-106957857D01*
X128444524Y-107053095D01*
X128396905Y-107195952D01*
X127825476Y-107767381D01*
X128444524Y-107767381D01*
X123063095Y-106767381D02*
X123063095Y-107576905D01*
X123110714Y-107672143D01*
X123158333Y-107719762D01*
X123253571Y-107767381D01*
X123444048Y-107767381D01*
X123539286Y-107719762D01*
X123586905Y-107672143D01*
X123634524Y-107576905D01*
X123634524Y-106767381D01*
X124015476Y-106767381D02*
X124634524Y-106767381D01*
X124301190Y-107148333D01*
X124444048Y-107148333D01*
X124539286Y-107195952D01*
X124586905Y-107243571D01*
X124634524Y-107338810D01*
X124634524Y-107576905D01*
X124586905Y-107672143D01*
X124539286Y-107719762D01*
X124444048Y-107767381D01*
X124158333Y-107767381D01*
X124063095Y-107719762D01*
X124015476Y-107672143D01*
M02*
