M48
;DRILL file {KiCad 4.0.7} date 10/18/19 23:27:26
;FORMAT={2:4/ absolute / inch / suppress leading zeros}
FMAT,2
INCH,TZ
T1C0.016
T2C0.031
T3C0.039
%
G90
G05
M72
T1
X50500Y-52250
X51000Y-45500
X51000Y-46250
X55250Y-52000
X56750Y-53000
T2
X45750Y-41250
X45750Y-42250
X45750Y-43250
X45750Y-44250
X45750Y-45250
X45750Y-46250
X45750Y-47250
X45750Y-48250
X45750Y-49250
X45750Y-50250
X45750Y-51250
X45750Y-52250
X45750Y-53250
X45750Y-54250
X45750Y-55250
X45750Y-56250
X45750Y-57250
X45750Y-58250
X45750Y-59250
X45750Y-60250
X47250Y-41250
X47250Y-42250
X47250Y-43250
X47250Y-44250
X47250Y-45250
X47250Y-46250
X47250Y-47250
X47250Y-48250
X47250Y-49250
X47250Y-50250
X47250Y-51250
X47250Y-52250
X47250Y-53250
X47250Y-54250
X47250Y-55250
X47250Y-56250
X47250Y-57250
X47250Y-58250
X47250Y-59250
X47250Y-60250
X51750Y-41250
X51750Y-42250
X51750Y-43250
X51750Y-44250
X51750Y-45250
X51750Y-46250
X51750Y-47250
X51750Y-48250
X51750Y-49250
X51750Y-50250
X51750Y-51250
X51750Y-52250
X51750Y-53250
X51750Y-54250
X51750Y-55250
X51750Y-56250
X51750Y-57250
X51750Y-58250
X51750Y-59250
X51750Y-60250
X53250Y-41250
X53250Y-42250
X53250Y-43250
X53250Y-44250
X53250Y-45250
X53250Y-46250
X53250Y-47250
X53250Y-48250
X53250Y-49250
X53250Y-50250
X53250Y-51250
X53250Y-52250
X53250Y-53250
X53250Y-54250
X53250Y-55250
X53250Y-56250
X53250Y-57250
X53250Y-58250
X53250Y-59250
X53250Y-60250
X54500Y-41031
X54500Y-43000
X54500Y-45281
X54500Y-47250
X54500Y-49531
X54500Y-51500
X54500Y-54250
X54500Y-55250
X54500Y-56250
X54500Y-57250
X54500Y-58250
X54500Y-59250
X54500Y-60250
X56500Y-41500
X56500Y-42500
X56500Y-43500
X56500Y-45750
X56500Y-46750
X56500Y-47750
X56500Y-50000
X56500Y-51000
X56500Y-52000
X57500Y-54250
X57500Y-55250
X57500Y-56250
X57500Y-57250
X57500Y-58250
X57500Y-59250
X57500Y-60250
T3
X48500Y-39750
X49000Y-53750
X49000Y-55250
X49500Y-39750
X50000Y-53750
X50000Y-55250
X50500Y-39750
T0
M30
