G04 #@! TF.FileFunction,Legend,Bot*
%FSLAX46Y46*%
G04 Gerber Fmt 4.6, Leading zero omitted, Abs format (unit mm)*
G04 Created by KiCad (PCBNEW 4.0.7) date 10/18/19 23:27:25*
%MOMM*%
%LPD*%
G01*
G04 APERTURE LIST*
%ADD10C,0.100000*%
%ADD11C,0.150000*%
%ADD12C,0.200000*%
G04 APERTURE END LIST*
D10*
D11*
X141152619Y-135929048D02*
X142152619Y-135929048D01*
X142152619Y-135548095D01*
X142105000Y-135452857D01*
X142057381Y-135405238D01*
X141962143Y-135357619D01*
X141819286Y-135357619D01*
X141724048Y-135405238D01*
X141676429Y-135452857D01*
X141628810Y-135548095D01*
X141628810Y-135929048D01*
X141438333Y-134976667D02*
X141438333Y-134500476D01*
X141152619Y-135071905D02*
X142152619Y-134738572D01*
X141152619Y-134405238D01*
X141200238Y-134119524D02*
X141152619Y-133976667D01*
X141152619Y-133738571D01*
X141200238Y-133643333D01*
X141247857Y-133595714D01*
X141343095Y-133548095D01*
X141438333Y-133548095D01*
X141533571Y-133595714D01*
X141581190Y-133643333D01*
X141628810Y-133738571D01*
X141676429Y-133929048D01*
X141724048Y-134024286D01*
X141771667Y-134071905D01*
X141866905Y-134119524D01*
X141962143Y-134119524D01*
X142057381Y-134071905D01*
X142105000Y-134024286D01*
X142152619Y-133929048D01*
X142152619Y-133690952D01*
X142105000Y-133548095D01*
X141200238Y-133167143D02*
X141152619Y-133024286D01*
X141152619Y-132786190D01*
X141200238Y-132690952D01*
X141247857Y-132643333D01*
X141343095Y-132595714D01*
X141438333Y-132595714D01*
X141533571Y-132643333D01*
X141581190Y-132690952D01*
X141628810Y-132786190D01*
X141676429Y-132976667D01*
X141724048Y-133071905D01*
X141771667Y-133119524D01*
X141866905Y-133167143D01*
X141962143Y-133167143D01*
X142057381Y-133119524D01*
X142105000Y-133071905D01*
X142152619Y-132976667D01*
X142152619Y-132738571D01*
X142105000Y-132595714D01*
X142152619Y-132310000D02*
X142152619Y-131738571D01*
X141152619Y-132024286D02*
X142152619Y-132024286D01*
X141152619Y-131405238D02*
X142152619Y-131405238D01*
X141676429Y-131405238D02*
X141676429Y-130833809D01*
X141152619Y-130833809D02*
X142152619Y-130833809D01*
X141152619Y-129786190D02*
X141628810Y-130119524D01*
X141152619Y-130357619D02*
X142152619Y-130357619D01*
X142152619Y-129976666D01*
X142105000Y-129881428D01*
X142057381Y-129833809D01*
X141962143Y-129786190D01*
X141819286Y-129786190D01*
X141724048Y-129833809D01*
X141676429Y-129881428D01*
X141628810Y-129976666D01*
X141628810Y-130357619D01*
X142152619Y-129167143D02*
X142152619Y-128976666D01*
X142105000Y-128881428D01*
X142009762Y-128786190D01*
X141819286Y-128738571D01*
X141485952Y-128738571D01*
X141295476Y-128786190D01*
X141200238Y-128881428D01*
X141152619Y-128976666D01*
X141152619Y-129167143D01*
X141200238Y-129262381D01*
X141295476Y-129357619D01*
X141485952Y-129405238D01*
X141819286Y-129405238D01*
X142009762Y-129357619D01*
X142105000Y-129262381D01*
X142152619Y-129167143D01*
X142152619Y-128310000D02*
X141343095Y-128310000D01*
X141247857Y-128262381D01*
X141200238Y-128214762D01*
X141152619Y-128119524D01*
X141152619Y-127929047D01*
X141200238Y-127833809D01*
X141247857Y-127786190D01*
X141343095Y-127738571D01*
X142152619Y-127738571D01*
X142105000Y-126738571D02*
X142152619Y-126833809D01*
X142152619Y-126976666D01*
X142105000Y-127119524D01*
X142009762Y-127214762D01*
X141914524Y-127262381D01*
X141724048Y-127310000D01*
X141581190Y-127310000D01*
X141390714Y-127262381D01*
X141295476Y-127214762D01*
X141200238Y-127119524D01*
X141152619Y-126976666D01*
X141152619Y-126881428D01*
X141200238Y-126738571D01*
X141247857Y-126690952D01*
X141581190Y-126690952D01*
X141581190Y-126881428D01*
X141152619Y-126262381D02*
X142152619Y-126262381D01*
X141676429Y-126262381D02*
X141676429Y-125690952D01*
X141152619Y-125690952D02*
X142152619Y-125690952D01*
D12*
X144780000Y-130175000D02*
X144780000Y-130810000D01*
X144780000Y-131445000D02*
X144780000Y-130810000D01*
X144145000Y-132080000D02*
X144780000Y-132080000D01*
X144145000Y-129540000D02*
X144780000Y-129540000D01*
D11*
X126230000Y-105155714D02*
X126277619Y-105250952D01*
X126277619Y-105393809D01*
X126230000Y-105536667D01*
X126134762Y-105631905D01*
X126039524Y-105679524D01*
X125849048Y-105727143D01*
X125706190Y-105727143D01*
X125515714Y-105679524D01*
X125420476Y-105631905D01*
X125325238Y-105536667D01*
X125277619Y-105393809D01*
X125277619Y-105298571D01*
X125325238Y-105155714D01*
X125372857Y-105108095D01*
X125706190Y-105108095D01*
X125706190Y-105298571D01*
X125277619Y-104679524D02*
X126277619Y-104679524D01*
X125277619Y-104108095D01*
X126277619Y-104108095D01*
X125277619Y-103631905D02*
X126277619Y-103631905D01*
X126277619Y-103393810D01*
X126230000Y-103250952D01*
X126134762Y-103155714D01*
X126039524Y-103108095D01*
X125849048Y-103060476D01*
X125706190Y-103060476D01*
X125515714Y-103108095D01*
X125420476Y-103155714D01*
X125325238Y-103250952D01*
X125277619Y-103393810D01*
X125277619Y-103631905D01*
X127817619Y-106012857D02*
X127817619Y-106489048D01*
X128817619Y-106489048D01*
X128817619Y-105679524D02*
X128008095Y-105679524D01*
X127912857Y-105631905D01*
X127865238Y-105584286D01*
X127817619Y-105489048D01*
X127817619Y-105298571D01*
X127865238Y-105203333D01*
X127912857Y-105155714D01*
X128008095Y-105108095D01*
X128817619Y-105108095D01*
X127817619Y-104631905D02*
X128817619Y-104631905D01*
X128103333Y-104298571D01*
X128817619Y-103965238D01*
X127817619Y-103965238D01*
X128103333Y-103536667D02*
X128103333Y-103060476D01*
X127817619Y-103631905D02*
X128817619Y-103298572D01*
X127817619Y-102965238D01*
X122832857Y-108155714D02*
X122785238Y-108203333D01*
X122737619Y-108346190D01*
X122737619Y-108441428D01*
X122785238Y-108584286D01*
X122880476Y-108679524D01*
X122975714Y-108727143D01*
X123166190Y-108774762D01*
X123309048Y-108774762D01*
X123499524Y-108727143D01*
X123594762Y-108679524D01*
X123690000Y-108584286D01*
X123737619Y-108441428D01*
X123737619Y-108346190D01*
X123690000Y-108203333D01*
X123642381Y-108155714D01*
X122737619Y-107727143D02*
X123737619Y-107727143D01*
X123261429Y-107727143D02*
X123261429Y-107155714D01*
X122737619Y-107155714D02*
X123737619Y-107155714D01*
X122737619Y-106108095D02*
X123213810Y-106441429D01*
X122737619Y-106679524D02*
X123737619Y-106679524D01*
X123737619Y-106298571D01*
X123690000Y-106203333D01*
X123642381Y-106155714D01*
X123547143Y-106108095D01*
X123404286Y-106108095D01*
X123309048Y-106155714D01*
X123261429Y-106203333D01*
X123213810Y-106298571D01*
X123213810Y-106679524D01*
X123737619Y-105489048D02*
X123737619Y-105298571D01*
X123690000Y-105203333D01*
X123594762Y-105108095D01*
X123404286Y-105060476D01*
X123070952Y-105060476D01*
X122880476Y-105108095D01*
X122785238Y-105203333D01*
X122737619Y-105298571D01*
X122737619Y-105489048D01*
X122785238Y-105584286D01*
X122880476Y-105679524D01*
X123070952Y-105727143D01*
X123404286Y-105727143D01*
X123594762Y-105679524D01*
X123690000Y-105584286D01*
X123737619Y-105489048D01*
X122737619Y-104631905D02*
X123737619Y-104631905D01*
X123023333Y-104298571D01*
X123737619Y-103965238D01*
X122737619Y-103965238D01*
X123023333Y-103536667D02*
X123023333Y-103060476D01*
X122737619Y-103631905D02*
X123737619Y-103298572D01*
X122737619Y-102965238D01*
X128325238Y-143962381D02*
X128801429Y-143962381D01*
X128801429Y-142962381D01*
X127991905Y-142962381D02*
X127991905Y-143771905D01*
X127944286Y-143867143D01*
X127896667Y-143914762D01*
X127801429Y-143962381D01*
X127610952Y-143962381D01*
X127515714Y-143914762D01*
X127468095Y-143867143D01*
X127420476Y-143771905D01*
X127420476Y-142962381D01*
X126944286Y-143962381D02*
X126944286Y-142962381D01*
X126610952Y-143676667D01*
X126277619Y-142962381D01*
X126277619Y-143962381D01*
X126039524Y-144057619D02*
X125277619Y-144057619D01*
X125087143Y-143914762D02*
X124944286Y-143962381D01*
X124706190Y-143962381D01*
X124610952Y-143914762D01*
X124563333Y-143867143D01*
X124515714Y-143771905D01*
X124515714Y-143676667D01*
X124563333Y-143581429D01*
X124610952Y-143533810D01*
X124706190Y-143486190D01*
X124896667Y-143438571D01*
X124991905Y-143390952D01*
X125039524Y-143343333D01*
X125087143Y-143248095D01*
X125087143Y-143152857D01*
X125039524Y-143057619D01*
X124991905Y-143010000D01*
X124896667Y-142962381D01*
X124658571Y-142962381D01*
X124515714Y-143010000D01*
X124087143Y-143438571D02*
X123753809Y-143438571D01*
X123610952Y-143962381D02*
X124087143Y-143962381D01*
X124087143Y-142962381D01*
X123610952Y-142962381D01*
X123182381Y-143962381D02*
X123182381Y-142962381D01*
X122801428Y-142962381D01*
X122706190Y-143010000D01*
X122658571Y-143057619D01*
X122610952Y-143152857D01*
X122610952Y-143295714D01*
X122658571Y-143390952D01*
X122706190Y-143438571D01*
X122801428Y-143486190D01*
X123182381Y-143486190D01*
X128253809Y-133707143D02*
X128301428Y-133754762D01*
X128444285Y-133802381D01*
X128539523Y-133802381D01*
X128682381Y-133754762D01*
X128777619Y-133659524D01*
X128825238Y-133564286D01*
X128872857Y-133373810D01*
X128872857Y-133230952D01*
X128825238Y-133040476D01*
X128777619Y-132945238D01*
X128682381Y-132850000D01*
X128539523Y-132802381D01*
X128444285Y-132802381D01*
X128301428Y-132850000D01*
X128253809Y-132897619D01*
X127825238Y-133802381D02*
X127825238Y-132802381D01*
X127825238Y-133278571D02*
X127253809Y-133278571D01*
X127253809Y-133802381D02*
X127253809Y-132802381D01*
X126206190Y-133802381D02*
X126539524Y-133326190D01*
X126777619Y-133802381D02*
X126777619Y-132802381D01*
X126396666Y-132802381D01*
X126301428Y-132850000D01*
X126253809Y-132897619D01*
X126206190Y-132992857D01*
X126206190Y-133135714D01*
X126253809Y-133230952D01*
X126301428Y-133278571D01*
X126396666Y-133326190D01*
X126777619Y-133326190D01*
X126015714Y-133897619D02*
X125253809Y-133897619D01*
X125063333Y-133754762D02*
X124920476Y-133802381D01*
X124682380Y-133802381D01*
X124587142Y-133754762D01*
X124539523Y-133707143D01*
X124491904Y-133611905D01*
X124491904Y-133516667D01*
X124539523Y-133421429D01*
X124587142Y-133373810D01*
X124682380Y-133326190D01*
X124872857Y-133278571D01*
X124968095Y-133230952D01*
X125015714Y-133183333D01*
X125063333Y-133088095D01*
X125063333Y-132992857D01*
X125015714Y-132897619D01*
X124968095Y-132850000D01*
X124872857Y-132802381D01*
X124634761Y-132802381D01*
X124491904Y-132850000D01*
X124063333Y-133278571D02*
X123729999Y-133278571D01*
X123587142Y-133802381D02*
X124063333Y-133802381D01*
X124063333Y-132802381D01*
X123587142Y-132802381D01*
X123158571Y-133802381D02*
X123158571Y-132802381D01*
X122777618Y-132802381D01*
X122682380Y-132850000D01*
X122634761Y-132897619D01*
X122587142Y-132992857D01*
X122587142Y-133135714D01*
X122634761Y-133230952D01*
X122682380Y-133278571D01*
X122777618Y-133326190D01*
X123158571Y-133326190D01*
D12*
X127000000Y-142240000D02*
X127000000Y-140970000D01*
X124460000Y-142240000D02*
X127000000Y-142240000D01*
X124460000Y-140970000D02*
X124460000Y-142240000D01*
X127000000Y-134620000D02*
X127000000Y-135890000D01*
X124460000Y-134620000D02*
X127000000Y-134620000D01*
X124460000Y-135890000D02*
X124460000Y-134620000D01*
M02*
