G04 #@! TF.FileFunction,Legend,Bot*
%FSLAX46Y46*%
G04 Gerber Fmt 4.6, Leading zero omitted, Abs format (unit mm)*
G04 Created by KiCad (PCBNEW 4.0.7) date 09/11/18 19:27:17*
%MOMM*%
%LPD*%
G01*
G04 APERTURE LIST*
%ADD10C,0.100000*%
%ADD11C,0.300000*%
G04 APERTURE END LIST*
D10*
D11*
X126469286Y-151820714D02*
X126397857Y-151892143D01*
X126326429Y-152106429D01*
X126326429Y-152249286D01*
X126397857Y-152463571D01*
X126540714Y-152606429D01*
X126683571Y-152677857D01*
X126969286Y-152749286D01*
X127183571Y-152749286D01*
X127469286Y-152677857D01*
X127612143Y-152606429D01*
X127755000Y-152463571D01*
X127826429Y-152249286D01*
X127826429Y-152106429D01*
X127755000Y-151892143D01*
X127683571Y-151820714D01*
X127826429Y-150535000D02*
X127826429Y-150820714D01*
X127755000Y-150963571D01*
X127683571Y-151035000D01*
X127469286Y-151177857D01*
X127183571Y-151249286D01*
X126612143Y-151249286D01*
X126469286Y-151177857D01*
X126397857Y-151106429D01*
X126326429Y-150963571D01*
X126326429Y-150677857D01*
X126397857Y-150535000D01*
X126469286Y-150463571D01*
X126612143Y-150392143D01*
X126969286Y-150392143D01*
X127112143Y-150463571D01*
X127183571Y-150535000D01*
X127255000Y-150677857D01*
X127255000Y-150963571D01*
X127183571Y-151106429D01*
X127112143Y-151177857D01*
X126969286Y-151249286D01*
X127326429Y-149106429D02*
X126326429Y-149106429D01*
X127897857Y-149463572D02*
X126826429Y-149820715D01*
X126826429Y-148892143D01*
X126326429Y-146463572D02*
X126326429Y-147177858D01*
X127826429Y-147177858D01*
X127326429Y-145320715D02*
X126326429Y-145320715D01*
X127326429Y-145963572D02*
X126540714Y-145963572D01*
X126397857Y-145892144D01*
X126326429Y-145749286D01*
X126326429Y-145535001D01*
X126397857Y-145392144D01*
X126469286Y-145320715D01*
X126326429Y-144606429D02*
X127326429Y-144606429D01*
X127183571Y-144606429D02*
X127255000Y-144535001D01*
X127326429Y-144392143D01*
X127326429Y-144177858D01*
X127255000Y-144035001D01*
X127112143Y-143963572D01*
X126326429Y-143963572D01*
X127112143Y-143963572D02*
X127255000Y-143892143D01*
X127326429Y-143749286D01*
X127326429Y-143535001D01*
X127255000Y-143392143D01*
X127112143Y-143320715D01*
X126326429Y-143320715D01*
X126326429Y-141963572D02*
X127112143Y-141963572D01*
X127255000Y-142035001D01*
X127326429Y-142177858D01*
X127326429Y-142463572D01*
X127255000Y-142606429D01*
X126397857Y-141963572D02*
X126326429Y-142106429D01*
X126326429Y-142463572D01*
X126397857Y-142606429D01*
X126540714Y-142677858D01*
X126683571Y-142677858D01*
X126826429Y-142606429D01*
X126897857Y-142463572D01*
X126897857Y-142106429D01*
X126969286Y-141963572D01*
X127326429Y-141463572D02*
X127326429Y-140892143D01*
X126326429Y-141249286D02*
X127612143Y-141249286D01*
X127755000Y-141177858D01*
X127826429Y-141035000D01*
X127826429Y-140892143D01*
X126326429Y-140392143D02*
X127326429Y-140392143D01*
X127826429Y-140392143D02*
X127755000Y-140463572D01*
X127683571Y-140392143D01*
X127755000Y-140320715D01*
X127826429Y-140392143D01*
X127683571Y-140392143D01*
X126326429Y-139820714D02*
X127326429Y-139035000D01*
X127326429Y-139820714D02*
X126326429Y-139035000D01*
X126326429Y-137320714D02*
X127326429Y-137320714D01*
X127040714Y-137320714D02*
X127183571Y-137249286D01*
X127255000Y-137177857D01*
X127326429Y-137035000D01*
X127326429Y-136892143D01*
X126397857Y-135820715D02*
X126326429Y-135963572D01*
X126326429Y-136249286D01*
X126397857Y-136392143D01*
X126540714Y-136463572D01*
X127112143Y-136463572D01*
X127255000Y-136392143D01*
X127326429Y-136249286D01*
X127326429Y-135963572D01*
X127255000Y-135820715D01*
X127112143Y-135749286D01*
X126969286Y-135749286D01*
X126826429Y-136463572D01*
X127326429Y-135249286D02*
X126326429Y-134892143D01*
X127326429Y-134535001D01*
X126469286Y-133963572D02*
X126397857Y-133892144D01*
X126326429Y-133963572D01*
X126397857Y-134035001D01*
X126469286Y-133963572D01*
X126326429Y-133963572D01*
X126755000Y-132177858D02*
X126755000Y-131463572D01*
X126326429Y-132320715D02*
X127826429Y-131820715D01*
X126326429Y-131320715D01*
X123776429Y-152677857D02*
X125276429Y-152677857D01*
X123776429Y-152035000D02*
X124562143Y-152035000D01*
X124705000Y-152106429D01*
X124776429Y-152249286D01*
X124776429Y-152463571D01*
X124705000Y-152606429D01*
X124633571Y-152677857D01*
X124776429Y-151535000D02*
X124776429Y-150963571D01*
X125276429Y-151320714D02*
X123990714Y-151320714D01*
X123847857Y-151249286D01*
X123776429Y-151106428D01*
X123776429Y-150963571D01*
X124776429Y-150677857D02*
X124776429Y-150106428D01*
X125276429Y-150463571D02*
X123990714Y-150463571D01*
X123847857Y-150392143D01*
X123776429Y-150249285D01*
X123776429Y-150106428D01*
X124776429Y-149606428D02*
X123276429Y-149606428D01*
X124705000Y-149606428D02*
X124776429Y-149463571D01*
X124776429Y-149177857D01*
X124705000Y-149035000D01*
X124633571Y-148963571D01*
X124490714Y-148892142D01*
X124062143Y-148892142D01*
X123919286Y-148963571D01*
X123847857Y-149035000D01*
X123776429Y-149177857D01*
X123776429Y-149463571D01*
X123847857Y-149606428D01*
X123847857Y-148320714D02*
X123776429Y-148177857D01*
X123776429Y-147892142D01*
X123847857Y-147749285D01*
X123990714Y-147677857D01*
X124062143Y-147677857D01*
X124205000Y-147749285D01*
X124276429Y-147892142D01*
X124276429Y-148106428D01*
X124347857Y-148249285D01*
X124490714Y-148320714D01*
X124562143Y-148320714D01*
X124705000Y-148249285D01*
X124776429Y-148106428D01*
X124776429Y-147892142D01*
X124705000Y-147749285D01*
X123919286Y-147034999D02*
X123847857Y-146963571D01*
X123776429Y-147034999D01*
X123847857Y-147106428D01*
X123919286Y-147034999D01*
X123776429Y-147034999D01*
X124705000Y-147034999D02*
X124633571Y-146963571D01*
X124562143Y-147034999D01*
X124633571Y-147106428D01*
X124705000Y-147034999D01*
X124562143Y-147034999D01*
X125347857Y-145249285D02*
X123419286Y-146534999D01*
X125347857Y-143677856D02*
X123419286Y-144963570D01*
X123776429Y-143177855D02*
X125276429Y-143177855D01*
X123776429Y-142534998D02*
X124562143Y-142534998D01*
X124705000Y-142606427D01*
X124776429Y-142749284D01*
X124776429Y-142963569D01*
X124705000Y-143106427D01*
X124633571Y-143177855D01*
X124776429Y-141963569D02*
X123776429Y-141606426D01*
X124776429Y-141249284D01*
X123847857Y-140106427D02*
X123776429Y-140249284D01*
X123776429Y-140534998D01*
X123847857Y-140677855D01*
X123990714Y-140749284D01*
X124562143Y-140749284D01*
X124705000Y-140677855D01*
X124776429Y-140534998D01*
X124776429Y-140249284D01*
X124705000Y-140106427D01*
X124562143Y-140034998D01*
X124419286Y-140034998D01*
X124276429Y-140749284D01*
X124776429Y-139606427D02*
X124776429Y-139034998D01*
X125276429Y-139392141D02*
X123990714Y-139392141D01*
X123847857Y-139320713D01*
X123776429Y-139177855D01*
X123776429Y-139034998D01*
X123847857Y-137963570D02*
X123776429Y-138106427D01*
X123776429Y-138392141D01*
X123847857Y-138534998D01*
X123990714Y-138606427D01*
X124562143Y-138606427D01*
X124705000Y-138534998D01*
X124776429Y-138392141D01*
X124776429Y-138106427D01*
X124705000Y-137963570D01*
X124562143Y-137892141D01*
X124419286Y-137892141D01*
X124276429Y-138606427D01*
X123776429Y-137249284D02*
X125276429Y-137249284D01*
X124705000Y-137249284D02*
X124776429Y-137106427D01*
X124776429Y-136820713D01*
X124705000Y-136677856D01*
X124633571Y-136606427D01*
X124490714Y-136534998D01*
X124062143Y-136534998D01*
X123919286Y-136606427D01*
X123847857Y-136677856D01*
X123776429Y-136820713D01*
X123776429Y-137106427D01*
X123847857Y-137249284D01*
X123776429Y-135677855D02*
X123847857Y-135820713D01*
X123919286Y-135892141D01*
X124062143Y-135963570D01*
X124490714Y-135963570D01*
X124633571Y-135892141D01*
X124705000Y-135820713D01*
X124776429Y-135677855D01*
X124776429Y-135463570D01*
X124705000Y-135320713D01*
X124633571Y-135249284D01*
X124490714Y-135177855D01*
X124062143Y-135177855D01*
X123919286Y-135249284D01*
X123847857Y-135320713D01*
X123776429Y-135463570D01*
X123776429Y-135677855D01*
X123776429Y-134320712D02*
X123847857Y-134463570D01*
X123990714Y-134534998D01*
X125276429Y-134534998D01*
X123776429Y-133534998D02*
X123847857Y-133677856D01*
X123990714Y-133749284D01*
X125276429Y-133749284D01*
X123847857Y-132392142D02*
X123776429Y-132534999D01*
X123776429Y-132820713D01*
X123847857Y-132963570D01*
X123990714Y-133034999D01*
X124562143Y-133034999D01*
X124705000Y-132963570D01*
X124776429Y-132820713D01*
X124776429Y-132534999D01*
X124705000Y-132392142D01*
X124562143Y-132320713D01*
X124419286Y-132320713D01*
X124276429Y-133034999D01*
X123919286Y-131677856D02*
X123847857Y-131606428D01*
X123776429Y-131677856D01*
X123847857Y-131749285D01*
X123919286Y-131677856D01*
X123776429Y-131677856D01*
X123776429Y-130963570D02*
X125276429Y-130963570D01*
X124705000Y-130963570D02*
X124776429Y-130820713D01*
X124776429Y-130534999D01*
X124705000Y-130392142D01*
X124633571Y-130320713D01*
X124490714Y-130249284D01*
X124062143Y-130249284D01*
X123919286Y-130320713D01*
X123847857Y-130392142D01*
X123776429Y-130534999D01*
X123776429Y-130820713D01*
X123847857Y-130963570D01*
X123776429Y-129392141D02*
X123847857Y-129534999D01*
X123990714Y-129606427D01*
X125276429Y-129606427D01*
X123776429Y-128606427D02*
X123847857Y-128749285D01*
X123919286Y-128820713D01*
X124062143Y-128892142D01*
X124490714Y-128892142D01*
X124633571Y-128820713D01*
X124705000Y-128749285D01*
X124776429Y-128606427D01*
X124776429Y-128392142D01*
X124705000Y-128249285D01*
X124633571Y-128177856D01*
X124490714Y-128106427D01*
X124062143Y-128106427D01*
X123919286Y-128177856D01*
X123847857Y-128249285D01*
X123776429Y-128392142D01*
X123776429Y-128606427D01*
X124776429Y-126820713D02*
X123562143Y-126820713D01*
X123419286Y-126892142D01*
X123347857Y-126963570D01*
X123276429Y-127106427D01*
X123276429Y-127320713D01*
X123347857Y-127463570D01*
X123847857Y-126820713D02*
X123776429Y-126963570D01*
X123776429Y-127249284D01*
X123847857Y-127392142D01*
X123919286Y-127463570D01*
X124062143Y-127534999D01*
X124490714Y-127534999D01*
X124633571Y-127463570D01*
X124705000Y-127392142D01*
X124776429Y-127249284D01*
X124776429Y-126963570D01*
X124705000Y-126820713D01*
X123847857Y-126177856D02*
X123776429Y-126034999D01*
X123776429Y-125749284D01*
X123847857Y-125606427D01*
X123990714Y-125534999D01*
X124062143Y-125534999D01*
X124205000Y-125606427D01*
X124276429Y-125749284D01*
X124276429Y-125963570D01*
X124347857Y-126106427D01*
X124490714Y-126177856D01*
X124562143Y-126177856D01*
X124705000Y-126106427D01*
X124776429Y-125963570D01*
X124776429Y-125749284D01*
X124705000Y-125606427D01*
X124776429Y-124892141D02*
X123276429Y-124892141D01*
X124705000Y-124892141D02*
X124776429Y-124749284D01*
X124776429Y-124463570D01*
X124705000Y-124320713D01*
X124633571Y-124249284D01*
X124490714Y-124177855D01*
X124062143Y-124177855D01*
X123919286Y-124249284D01*
X123847857Y-124320713D01*
X123776429Y-124463570D01*
X123776429Y-124749284D01*
X123847857Y-124892141D01*
X123776429Y-123320712D02*
X123847857Y-123463570D01*
X123919286Y-123534998D01*
X124062143Y-123606427D01*
X124490714Y-123606427D01*
X124633571Y-123534998D01*
X124705000Y-123463570D01*
X124776429Y-123320712D01*
X124776429Y-123106427D01*
X124705000Y-122963570D01*
X124633571Y-122892141D01*
X124490714Y-122820712D01*
X124062143Y-122820712D01*
X123919286Y-122892141D01*
X123847857Y-122963570D01*
X123776429Y-123106427D01*
X123776429Y-123320712D01*
X124776429Y-122392141D02*
X124776429Y-121820712D01*
X125276429Y-122177855D02*
X123990714Y-122177855D01*
X123847857Y-122106427D01*
X123776429Y-121963569D01*
X123776429Y-121820712D01*
X123919286Y-121320712D02*
X123847857Y-121249284D01*
X123776429Y-121320712D01*
X123847857Y-121392141D01*
X123919286Y-121320712D01*
X123776429Y-121320712D01*
X123847857Y-119963569D02*
X123776429Y-120106426D01*
X123776429Y-120392140D01*
X123847857Y-120534998D01*
X123919286Y-120606426D01*
X124062143Y-120677855D01*
X124490714Y-120677855D01*
X124633571Y-120606426D01*
X124705000Y-120534998D01*
X124776429Y-120392140D01*
X124776429Y-120106426D01*
X124705000Y-119963569D01*
X123776429Y-119106426D02*
X123847857Y-119249284D01*
X123919286Y-119320712D01*
X124062143Y-119392141D01*
X124490714Y-119392141D01*
X124633571Y-119320712D01*
X124705000Y-119249284D01*
X124776429Y-119106426D01*
X124776429Y-118892141D01*
X124705000Y-118749284D01*
X124633571Y-118677855D01*
X124490714Y-118606426D01*
X124062143Y-118606426D01*
X123919286Y-118677855D01*
X123847857Y-118749284D01*
X123776429Y-118892141D01*
X123776429Y-119106426D01*
X123776429Y-117963569D02*
X124776429Y-117963569D01*
X124633571Y-117963569D02*
X124705000Y-117892141D01*
X124776429Y-117749283D01*
X124776429Y-117534998D01*
X124705000Y-117392141D01*
X124562143Y-117320712D01*
X123776429Y-117320712D01*
X124562143Y-117320712D02*
X124705000Y-117249283D01*
X124776429Y-117106426D01*
X124776429Y-116892141D01*
X124705000Y-116749283D01*
X124562143Y-116677855D01*
X123776429Y-116677855D01*
M02*
